<svg xmlns="http://www.w3.org/2000/svg" id="Layer_1" viewBox="0 0 143.9 100"><style>.st0{fill:#47391c}.st1{fill:#47391b}</style><path d="M126.1 38.2h1.3c.2 0 .6 0 .6.6 0 .5-.4.6-.7.6h-1.2v-1.2zm0 1.7h1.3c.6 0 .6.4.6.6 0 .3 0 .6.1 1h.6v-.1c-.2-.1-.2-.2-.2-.4v-.6c0-.5-.2-.6-.4-.7.4-.2.6-.6.5-1 0-.9-.6-1.1-1.3-1.1h-1.8v3.8h.5l.1-1.5z" class="st0"/><path d="M123.8 39.7c0-1.8 1.5-3.3 3.3-3.3s3.3 1.5 3.3 3.3-1.5 3.3-3.3 3.3-3.3-1.5-3.3-3.3zm3.2 3.8c2.1 0 3.8-1.7 3.8-3.8s-1.7-3.8-3.8-3.8c-2.1 0-3.8 1.7-3.8 3.8s1.7 3.8 3.8 3.8zm-30.3.8c3.7.2 5.6 2.2 4.4 5.1-.3.9-.9 1.6-1.7 2.1-.7.4-1.6.1-2-.6-.1-.2-.2-.5-.2-.8 0-.7.6-1.4.4-2.1-.2-.6-1.1-.7-1.6-.6-4.2.9-6.5 5.6-5.6 9.9.9 4.7 8.1-.9 7.9-.9 6.3 2.7-5.5 9.6-10.3 4-3.4-3.9.4-12.3 4.3-14.8 1.3-.9 2.8-1.4 4.4-1.3zm-5.1 23c6.9-.2 21.6-.6 32.6 3.3 3.7 1.3 7.9 2.9 10.5 5.5 3.2 3.2 2.1 4.3 2.1 4.3-.7 1.2-1.7.7-4-.9-.7-.5-1.5-1.1-2.2-1.5-1.2-.6-2.3-1.4-3.5-2-3.2-1.5-6.6-2.6-10.1-3.2-14.1-3-28.9-2.3-43.1-.4-16.9 2.3-36.1 7.9-52.7 13.1-4.9 1.7-9.8 3.3-14.7 5-1.5.5-3 1.1-4.4 1.6-.5-.7-.9-1.4-1.3-2.1 0-.1-.2-.4.1-.5 3.3-1.3 6.6-2.7 9.9-4 8-3.1 16.1-5.6 24.4-8 3.5-1 7-1.9 10.4-2.8 2.8-.6 3.2-.9 8.5-1.9 12.3-3.2 24.8-5 37.5-5.5zM72.7 14.7c-1.3-.6-2.7-.7-4-.4-1.9.5-3.7 1.4-5.2 2.6-2.8 2.1-5.3 4.5-7.5 7.2-3.3 3.8-6.2 8-8.7 12.5-4 7.8-7.1 15.9-11.8 23.3-2.1 3.6-4.8 6.8-8 9.5-1.1.9-2.6 1.3-3.4 2.3-.3.3-1 1.5-.4 2 .6.4 1.8.1 2.5-.1 5.1-1.7 9.2-7.2 11.8-11.7 2.4-3.9 4.7-7.8 6.7-11.9 1.5-3.4 3.1-6.8 4.6-10.3 3.5-7.1 9.5-15.9 16.5-20.4 1.1-.7 2.9-2.1 4.4-1.8 3.2.5.2 7.7-.4 9.2-2.8 5.7-6.9 10.8-11.9 14.7-1.2 1-2.5 1.9-3.6 2.9-1.4 1-2.7 2.1-3.9 3.4-.4.4.1 1.1.3 1.4 1.8 2.6 2.9-.4 4.7-1.3.3-.2.7-.2 1.1-.1.3.1.6.3.9.6 2.3 3.2.2 10.4-2.1 13.1-1 1.2-2.3 2.2-3.8 2.8 0 0-.4.2-.3.1-.4.2-.3 0-.3-.1 0-3.4.9-7.3-2.1-9.3-.5-.4-1-.6-1.6-.6-1.3-.1-2.6.5-3.4 1.5-1.9 2.3-2 9.3 0 11.4 5 5.1 11.7 1 14.7-4 1.9-3.2 3-6.8 3.2-10.5.2-3.2-1.3-4.9-2.3-7.5-.2-.5 2.1-2.5 2.3-2.8 2.8-2.6 5.5-5.4 8-8.3 2.3-3.6 9.7-16.5 3-19.4zM46.5 65c-.4-.2-.8-.5-1.1-1-1.1-1.9-1.1-4.3 0-6.2.4-.9 1.4-.4 1.7.1.7 1 1.7 7.7-.6 7.1zm37.3-14.8c1.1-4-6.6-4.4-8.3-3.8-1.5.4-2.8 1.3-3.8 2.6-2 2.1-7 11.5-4.2 14.2.6.5 1.4.7 2.1.6 3.6.1 4.8-1.7 7.7-3 .1 0 1.1-.4.5-.2 1 .9 2.1 4.7 4.4 2.2 1.3-1.4-.3-3.5-.2-5.1.6-2.5 1.1-4.9 1.8-7.5zM75 58.6c-1 .9-2.2 1.7-3.5 2.1-.4.2-1.7.6-1.6.2.2-3.7 1.6-7.2 3.9-10 .6-.6 1.2-1.1 1.9-1.6 1.3-.7 2.9-.3 3.7 1 1.4 2.1-2.8 7-4.4 8.3z" class="st0"/><path d="M139.1 1.1c-1.4.1-2.7.5-3.8 1.2-1.4.9-2.7 1.9-3.9 3-4.2 3.7-7.6 8.2-10 13.2-1.5 2.7-2.8 5.6-3.8 8.5-.7 1.7-1.3 4.3-2.7 5.6-.6.5-1.3.9-2.1 1-1.8.5-3.6.4-5.3-.3-1.6-.6-3.8-4-5.7-2.6-.4.2-.7.6-.7 1.1-.4 2.1 5.1 4.4 6.7 4.7 1.8.4 3.7.5 5.5.2-.6 1.4-1.2 2.9-1.7 4.4-1.8 3.9-3.7 7.9-5.5 11.8-1 1.9-2.3 3.8-3.2 5.9-.3.9-.5 1.9.2 2.6.6.5 1.5.5 2.1-.1 1-1.1 1.9-2.3 2.6-3.6 1.9-2.7 7.5-9.6 10.4-10.6 0 0 .1-.1.1.1.1 1.7-.3 3.4-1 5-.6 1.5-7.3 10-2 10.2.5 0 .9-.3 1.2-.6.4-1.3 1-2.6 1.4-3.8 1.6-3.4 4.6-6.4 4.2-10.6-.1-.9-.5-1.7-1.1-2.5-2.6-2.7-5.2-.2-7.3 1.4-1.1.9-1.1.4-1 .1 1.5-4 3.4-7.8 5.5-11.5 2.6-1.5 4.9-2.7 7.5-4.2 5.9-3.6 12.3-8.7 15.8-14.9 1.9-4.4 4.2-14.4-2.4-14.7zm1.4 7.5c-1.6 6.6-5.5 12.3-11.1 16.2-1.4 1-2.9 1.8-4.3 2.8-1.8 1.1-3.7 2.2-5.6 3.1-.2.1-.3.2-.5.2-.3.2 0-.3 0-.3.3-.9 2.6-5.3 3.1-6.6 1.5-3.1 2.9-6.2 4.7-9.2 1.1-1.8 2.4-3.5 3.8-5.1 1-1 2.1-2.1 3.1-3 1.3-1.4 3-2.4 4.9-2.9 2.2-.3 2.2 2.9 1.9 4.8z" class="st0"/><path d="M57.4 81.5c.8.8 1.2 1.8 1.2 2.9s-.4 2.1-1.2 2.9c-.8.8-1.8 1.2-2.9 1.2-1.1 0-2.1-.4-2.9-1.2-.8-.8-1.2-1.8-1.2-2.9s.4-2.1 1.2-2.9c.8-.8 1.8-1.2 2.9-1.2 1.1 0 2 .4 2.9 1.2zm0 3c0-.9-.3-1.7-.9-2.4-.6-.7-1.3-1.1-2.2-1.1-.9 0-1.6.3-2.1.9-.6.6-.8 1.3-.8 2.2 0 .6.1 1.2.4 1.8.3.6.7 1 1.2 1.4s1.1.6 1.7.6c.9 0 1.5-.3 2-1 .5-.8.7-1.6.7-2.4zM66.8 88c0 .1 0 .2-.1.2-.1.1-.1.1-.2.1h-.1c-.8-.2-1.5-.6-2.1-1.2s-1.1-1.3-1.4-2.1c-.2 0-.6.1-1.1.1v2.5c0 .1.2.1.5.1s.5.1.5.3c0 .1 0 .2-.1.2-.1.1-.1.1-.2.1h-2.2c-.2 0-.3-.1-.3-.3 0-.1 0-.2.1-.2h.3c.1 0 .2 0 .3-.1s.1-.1.2-.3v-2.1c0-2.4 0-3.8-.1-4.2V81l-.1-.1c-.1-.1-.1 0-.1 0h-.2c-.2 0-.3-.1-.3-.3 0-.2.1-.2.2-.2h2.4c.7 0 1.4.2 1.9.5.5.4.8.9.8 1.6 0 1-.4 1.7-1.3 2.1.2.7.4 1.2.6 1.5.1.1.2.3.3.4l.3.3.3.3c.1.1.2.2.3.2.1 0 .2.1.4.2s.3.2.4.2c.1.1.1.2.1.3zm-2.5-5.3c0-.6-.2-1-.6-1.3-.4-.3-.9-.4-1.5-.4h-.6v3.4c.4 0 .7 0 1-.1.3 0 .5-.1.8-.2.3-.1.5-.3.6-.6s.3-.4.3-.8zM70.5 80.6c0 .1-.1.2-.2.2h-.4c-.2 0-.3 0-.4.1-.1.1-.2.2-.2.3v6.2c0 .1.1.2.2.3.1.1.2.1.4.1h.4c.1 0 .2.1.2.2v.2s-.1.1-.2.1H67.7c-.1 0-.2-.1-.2-.3 0-.1 0-.2.1-.2h.3c.1 0 .2 0 .3-.1.1-.1.2-.2.2-.3 0-.7.1-2.3.1-4.7v-.8-.8c0-.1-.2-.2-.5-.2-.4 0-.5-.1-.5-.3 0-.1.1-.2.2-.2H70.6c-.1-.1-.1 0-.1.2zM78.9 84.6c0 .1-.1.2-.4.3-.2.1-.4.1-.4.3v2.6c0 .2-.3.3-1 .4-.7.1-1.2.2-1.7.2-1.1 0-2.1-.4-3-1.1-.9-.7-1.3-1.7-1.3-2.8 0-1.3.4-2.3 1.2-3.1.8-.8 1.9-1.1 3.2-1.1h.5c.2 0 .4.1.6.1.2 0 .4.1.4.1s.1 0 .2-.1.1-.1.2-.1h.2s.1 0 .1.1V80.7c0 .2 0 .4.1.7.1.3.1.5.1.5 0 .1 0 .1-.1.2s-.1.1-.2.1c-.2 0-.3-.1-.3-.2-.2-.4-.4-.7-.7-.8-.1-.2-.5-.2-1-.2-.9 0-1.7.3-2.2 1-.6.7-.8 1.5-.8 2.4 0 1 .3 1.9.9 2.5.6.6 1.5.9 2.5.9.6 0 1-.1 1.2-.3v-2.3s-.1-.1-.2-.1h-.4c-.1 0-.3 0-.4-.1-.2-.1-.2-.2-.2-.3 0-.1 0-.1.1-.2s.1-.1.2-.1h.8c.4 0 1 0 1.6-.1.1 0 .1 0 .2.1v.2zM83.1 80.6c0 .1-.1.2-.2.2h-.4c-.2 0-.3 0-.4.1-.1.1-.2.2-.2.3v6.2c0 .1.1.2.2.3s.2.1.4.1h.4c.1 0 .2.1.2.2v.2s-.1.1-.2.1H80.3c-.1 0-.2-.1-.2-.3 0-.1 0-.2.1-.2h.3c.1 0 .2 0 .3-.1.1-.1.2-.2.2-.3 0-.7.1-2.3.1-4.7v-.8-.8c0-.1-.2-.2-.5-.2s-.5-.1-.5-.3c0-.1.1-.2.2-.2H83.2c-.1-.1-.1 0-.1.2zM92.8 80.6c0 .1 0 .2-.1.2h-.2c-.1 0-.2 0-.2.1-.1.1-.1.2-.1.3v7c0 .1-.1.2-.2.2s-.2 0-.2-.1c-.3-.4-.6-.9-1-1.3-.4-.5-.9-.9-1.5-1.5-.6-.5-1-.9-1.2-1.2-1.2-1.3-2-2.2-2.3-2.6v1.8c0 1 0 1.8.1 2.3V87.5c0 .1 0 .1.1.2s.1.1.2.1H86.8c.1 0 .1 0 .2.1 0 .1.1.1.1.2s0 .2-.1.2h-2.2c-.1 0-.2-.1-.2-.3v-.1-.1h.5c.1 0 .1-.5.1-1.5 0-3.2 0-4.9-.1-5.1 0-.1-.1-.2-.2-.2s-.1-.1-.2-.1h-.3c-.1 0-.1-.1-.1-.2 0-.2 0-.2.1-.2h1.5c.1 0 .2.1.2.2.3.4.6.8 1 1.2.4.5.7.8 1 1.1.2.3.6.7 1.2 1.2l1 1 .3.3c.2.1.3.3.4.4.1.1.2.2.3.4v-1.7c0-1.7 0-2.9-.1-3.6-.1 0-.2-.1-.3-.1-.1 0-.3 0-.4-.1-.1 0-.1-.1-.1-.2 0-.2.1-.2.3-.2H92.5c.2 0 .3 0 .3.2zM100.6 87.9c0 .1 0 .1-.1.2 0 .1-.1.1-.1.1h-2c-.1 0-.2 0-.2-.1-.1-.1-.1-.1-.1-.2s.1-.2.3-.2c.2 0 .3 0 .3-.1s-.1-.2-.2-.5-.2-.6-.4-.9c-.1-.3-.2-.5-.2-.6-.4 0-.8.1-1.1.1h-1.6s-.1.2-.2.6c-.1.4-.3.7-.4.9-.1.3-.1.4-.1.5 0 .1 0 .1.1.1h.4c.1 0 .1.1.1.2s0 .1-.1.2l-.1.1H93.5c-.1 0-.2-.1-.2-.2s.1-.2.3-.3c.2-.1.3-.2.4-.3.2-.4.4-.8.5-1.2.2-.4.4-.9.6-1.5s.4-.9.5-1.2c.3-.7.7-1.7 1.1-2.9.1-.2.2-.3.4-.3.1 0 .2 0 .2.1.4 1.2.8 2.2 1.2 3.1.9 2.1 1.4 3.4 1.7 3.9 0 .1.1.2.2.2h.4c-.2.1-.2.2-.2.2zm-2.8-2.8L96.5 82l-1.2 3.1h2.5zM107.4 86.6s-.1.2-.2.7c-.1.4-.2.7-.2.7 0 .1-.1.1-.1.2h-3.2c-.9 0-1.6 0-2.1.1-.1 0-.2-.1-.2-.3 0-.1 0-.2.1-.2s.1-.1.1-.1h.4c.2 0 .2-.1.2-.2v-1.6-2.7-2.1-.1s-.1 0-.1-.1h-.1-.2c-.2 0-.3-.1-.3-.3 0-.1 0-.1.1-.2l.1-.1c.5.1.9.1 1.2.1h1.4c.2 0 .3.1.3.2s0 .2-.1.2-.2.1-.3.1h-.4c-.1 0-.2 0-.3.1 0 .1-.1.8-.1 2.1 0 2.9 0 4.4.1 4.5h.2c.2 0 .7 0 1.5-.1.7-.1 1.2-.1 1.3-.1l.3-.3c.1-.1.2-.3.3-.4.1-.1.2-.2.3-.2.1 0 .1 0 .2.1-.3-.1-.2-.1-.2 0zM28.2 92.8c0 .2-.1.3-.2.3s-.2 0-.2-.1c-.1-.1-.1-.2-.1-.4s-.1-.3-.1-.3c-.1-.2-.9-.4-2.3-.4-.4 0-.7 0-.8.1v3.1h1.2c.6 0 1 0 1.3-.1.1 0 .2 0 .3-.1.1-.1.1-.2.1-.2s0-.2.1-.2c0-.1.1-.1.2-.1.2 0 .2.1.2.2v1.8c0 .1-.1.2-.2.2s-.2 0-.2-.1-.1-.2-.1-.3c0-.1 0-.2-.1-.3-.1-.1-.2-.1-.4-.2h-2.3v3c0 .1.3.1.8.1.1 0 .2.1.2.2 0 .2-.1.3-.2.3H23c-.2 0-.2-.1-.2-.3v-.1-.1h.4c.2 0 .3-.1.3-.2.1-.2.1-1 .1-2.5s0-2.7-.1-3.8c0-.2 0-.3-.1-.3-.1-.1-.2-.1-.4-.1s-.2-.1-.2-.3c0-.1.1-.2.2-.2H28c.1 0 .1 0 .1.1v1c.1 0 .1.2.1.3zM35.6 97.6s-.1.2-.2.7c-.1.4-.2.7-.2.7 0 .1-.1.1-.1.2h-3.2c-.9 0-1.6 0-2.1.1-.1 0-.2-.1-.2-.3 0-.1 0-.2.1-.2s.1-.1.1-.1h.4c.2 0 .2-.1.2-.2v-1.6-2.7-2.1-.1s-.1 0-.1-.1h-.1-.2c-.2 0-.3-.1-.3-.3 0-.1 0-.1.1-.2l.1-.1c.5.1.9.1 1.2.1h1.4c.2 0 .3.1.3.2s0 .2-.1.2-.2.1-.3.1H32c-.1 0-.2 0-.3.1 0 .1-.1.8-.1 2.1 0 2.9 0 4.4.1 4.5h.2c.2 0 .7 0 1.5-.1.7-.1 1.2-.1 1.3-.1l.3-.3c.1-.1.2-.3.3-.4.1-.1.2-.2.3-.2.1 0 .1 0 .2.1-.2-.1-.2-.1-.2 0zM43.4 92.5c.8.8 1.2 1.8 1.2 2.9s-.4 2.1-1.2 2.9c-.8.8-1.8 1.2-2.9 1.2-1.1 0-2.1-.4-2.9-1.2-.8-.8-1.2-1.8-1.2-2.9s.4-2.1 1.2-2.9c.8-.8 1.8-1.2 2.9-1.2 1.1 0 2.1.4 2.9 1.2zm.1 3c0-.9-.3-1.7-.9-2.4-.6-.7-1.3-1.1-2.2-1.1-.9 0-1.6.3-2.1.9-.6.6-.8 1.3-.8 2.2 0 .6.1 1.2.4 1.8.3.6.7 1 1.2 1.4s1.1.6 1.7.6c.9 0 1.5-.3 2-1 .4-.8.7-1.6.7-2.4zM57.1 91.6c0 .1-.1.2-.2.2-.3.1-.5.4-.6.8-.3.7-.7 1.7-1.2 3.1-.5 1.4-1 2.5-1.3 3.3-.1.3-.3.4-.4.4-.1 0-.2-.1-.3-.3-.3-.8-.9-2.3-1.9-4.5-.8 1.8-1.3 3-1.6 3.5-.1.1-.1.3-.2.6s-.2.4-.3.6c0 .1-.1.2-.2.2-.2 0-.3-.1-.3-.2-.1-.1-.1-.3-.2-.6s-.1-.5-.2-.6c-.5-1.2-1.3-3.1-2.4-5.5 0 0 0-.1-.1-.2s-.1-.2-.1-.2c0-.1-.1-.1-.1-.2s-.1-.1-.1-.1h-.1-.1l-.1-.1v-.1c0-.1.1-.2.2-.2h2c.1 0 .2.1.2.3v.1s0 .1-.1.1h-.1-.2c-.2 0-.3 0-.3.1s.2.6.5 1.4c.3.8.7 1.7 1.2 2.7.4 1 .7 1.5.7 1.6.2-.5.5-1.1.9-2 .4-.8.7-1.5.8-1.8-.3-.7-.6-1.3-.8-1.7 0-.1-.1-.2-.2-.2s-.2-.1-.3-.1-.2 0-.2-.1c-.1 0-.1-.1-.1-.2 0-.2.1-.2.2-.2h2.4c.1 0 .2.1.2.2v.1s0 .1-.1.1h-.1-.2c-.3 0-.5.1-.5.2s.2.5.5 1.3c.4.8.7 1.7 1.2 2.7.4 1 .7 1.5.7 1.6.4-.9.8-2 1.3-3.3.5-1.3.8-2.1.8-2.3 0-.1 0-.1-.1-.2h-.2-.2s-.1-.1-.1-.2.1-.2.3-.2H57.1c-.1-.2 0-.1 0 .1zM63.8 97.5l-.2.6c-.1.4-.2.7-.2.9 0 .2-.1.2-.3.2h-5.2c-.2 0-.3-.1-.3-.3v-.1-.1h.4c.1 0 .2 0 .2-.1s.1-.1.1-.2v-4.2-2.1c0-.1-.1-.2-.3-.2s-.3-.1-.3-.3c0-.2.1-.2.2-.2h2.6c1.1 0 1.8 0 2.2-.1.3 0 .5-.1.5-.1h.2v.1c0 .1 0 .2-.1.4 0 .2-.1.4-.1.5v.4c0 .1 0 .2-.1.2-.1.1-.1.1-.2.1h-.1s-.1 0-.1-.1v-.1-.1-.1-.2-.1-.1-.1c0-.2-.8-.3-2.3-.3-.5 0-.8 0-1 .1v2.9h2.9c.1 0 .2 0 .2-.1s.1-.1.1-.2v-.2c0-.1.1-.1.2-.1h.1l.1.1v1.9c0 .1 0 .1-.1.1s-.1.1-.2.1-.2 0-.2-.1v-.3c0-.1 0-.2-.1-.3-.1-.1-.2-.2-.4-.2h-2.6v3h1.1c1.1 0 1.8 0 2-.1.2-.1.3-.1.4-.3.1-.1.2-.3.2-.4s.1-.2.2-.3c.1-.1.1-.1.2-.1s.1 0 .2.1.1.2.1.2zM72 99c0 .1 0 .2-.1.2-.1.1-.1.1-.2.1h-.1c-.8-.2-1.5-.6-2.1-1.2s-1.1-1.3-1.4-2.1c-.2 0-.6.1-1.1.1v2.5c0 .1.2.1.5.1s.5.1.5.3c0 .1 0 .2-.1.2-.1.1-.1.1-.2.1h-2.2c-.2 0-.3-.1-.3-.3 0-.1 0-.2.1-.2h.3c.1 0 .2 0 .3-.1s.1-.1.2-.3v-2.1c0-2.4 0-3.8-.1-4.2V92l-.1-.1c-.1-.1-.1 0-.1 0h-.2c-.2 0-.3-.1-.3-.3 0-.2.1-.2.2-.2h2.4c.7 0 1.4.2 1.9.5s.8.9.8 1.6c0 1-.4 1.7-1.3 2.1.2.7.4 1.2.6 1.5.1.1.2.3.3.4l.3.3.3.3c.1.1.2.2.3.2.1 0 .2.1.4.2s.3.2.4.2c.1.1.1.2.1.3zm-2.5-5.3c0-.6-.2-1-.6-1.3-.4-.3-.9-.4-1.5-.4h-.6v3.4c.4 0 .7 0 1-.1.3 0 .5-.1.8-.2.3-.1.5-.3.6-.6s.3-.4.3-.8zM82.7 97.5l-.2.6c-.1.4-.2.7-.2.9 0 .2-.1.2-.3.2h-5.2c-.2 0-.3-.1-.3-.3v-.1-.1h.4c.1 0 .2 0 .2-.1s.1-.1.1-.2v-4.2-2.1c0-.1-.1-.2-.3-.2s-.3-.1-.3-.3c0-.2.1-.2.2-.2h2.6c1.1 0 1.8 0 2.2-.1.3 0 .5-.1.5-.1h.2v.1c0 .1 0 .2-.1.4 0 .2-.1.4-.1.5v.4c0 .1 0 .2-.1.2-.1.1-.1.1-.2.1h-.1s-.1 0-.1-.1v-.1-.1-.1-.2-.1-.1-.1c0-.2-.8-.3-2.3-.3-.5 0-.8 0-1 .1v2.9h2.9c.1 0 .2 0 .2-.1s.1-.1.1-.2v-.2c0-.1.1-.1.2-.1h.1l.1.1v1.9c0 .1 0 .1-.1.1s-.1.1-.2.1-.2 0-.2-.1v-.3c0-.1 0-.2-.1-.3-.1-.1-.2-.2-.4-.2h-2.6v3h1.1c1.1 0 1.8 0 2-.1.2-.1.3-.1.4-.3.1-.1.2-.3.2-.4s.1-.2.2-.3c.1-.1.1-.1.2-.1s.1 0 .2.1c0 .1.1.2.1.2zM89.3 97c0 .7-.3 1.3-.8 1.8-.6.4-1.2.6-2 .6h-.6c-.2 0-.4-.1-.7-.1-.3 0-.5-.1-.5-.1 0 .1-.1.2-.2.3s-.2.1-.3.1c-.1 0-.2-.1-.2-.3-.1-.9-.2-1.5-.3-1.8 0-.1 0-.1.1-.2.1 0 .1-.1.2-.1s.2 0 .2.1c.1.4.4.8.8 1.1.4.3.9.4 1.5.4.5 0 .9-.1 1.3-.4.4-.3.6-.7.6-1.1 0-.3-.1-.5-.4-.8-.3-.2-.7-.4-1.1-.6-.4-.2-.9-.3-1.3-.5s-.8-.4-1.1-.7c-.3-.3-.5-.6-.5-1 0-.7.3-1.3.8-1.7.5-.4 1.1-.6 1.9-.6.4 0 .9.1 1.6.2.1-.2.2-.3.3-.3.1 0 .1 0 .2.1s.1.1.1.2v1.6c0 .1-.1.2-.2.2s-.2 0-.2-.1-.1-.2-.1-.3c0-.1 0-.2-.1-.2-.1-.2-.3-.4-.6-.5-.3-.1-.6-.2-.9-.2-.5 0-.9.1-1.2.3-.3.2-.5.5-.5 1 0 .3.2.6.5.8.3.2.7.4 1.1.6.4.2.9.3 1.3.5s.8.4 1.1.7c0 .2.2.5.2 1zM96.1 97c0 .7-.3 1.3-.8 1.8-.6.4-1.2.6-2 .6h-.6c-.2 0-.4-.1-.7-.1s-.5-.1-.5-.1c0 .1-.1.2-.1.3-.1.1-.2.1-.3.1-.1 0-.2-.1-.2-.3-.1-.9-.2-1.5-.3-1.8 0-.1 0-.1.1-.2.1 0 .1-.1.2-.1s.2 0 .2.1c.1.4.4.8.8 1.1.4.3.9.4 1.5.4.5 0 .9-.1 1.3-.4.4-.3.6-.7.6-1.1 0-.3-.2-.5-.5-.8-.3-.2-.7-.4-1.1-.6-.4-.2-.9-.3-1.3-.5s-.8-.4-1.1-.7-.5-.6-.5-1c0-.7.3-1.3.8-1.7.5-.4 1.1-.6 1.9-.6.4 0 .9.1 1.6.2.1-.2.2-.3.3-.3.1 0 .1 0 .2.1s.1.1.1.2v1.6c0 .1-.1.2-.2.2s-.2 0-.2-.1-.1-.2-.1-.3c0-.1 0-.2-.1-.2-.1-.2-.3-.4-.6-.5-.3-.1-.6-.2-.9-.2-.5 0-.9.1-1.2.3s-.5.5-.5 1c0 .3.2.6.5.8.3.2.7.4 1.1.6.4.2.9.3 1.3.5s.8.4 1.1.7c0 .2.2.5.2 1zM103.2 97.5l-.2.6c-.1.4-.2.7-.2.9 0 .2-.1.2-.3.2h-5.2c-.2 0-.3-.1-.3-.3v-.1-.1h.4c.1 0 .2 0 .2-.1s.1-.1.1-.2v-4.2-2.1c0-.1-.1-.2-.3-.2s-.3-.1-.3-.3c0-.2.1-.2.2-.2h2.6c1.1 0 1.8 0 2.2-.1.3 0 .5-.1.5-.1h.2v.1c0 .1 0 .2-.1.4 0 .2-.1.4-.1.5v.4c0 .1 0 .2-.1.2-.1.1-.1.1-.2.1h-.1s-.1 0-.1-.1v-.1-.1-.1-.2-.1-.1-.1c0-.2-.8-.3-2.3-.3-.5 0-.8 0-1 .1v2.9h2.9c.1 0 .2 0 .2-.1s.1-.1.1-.2v-.2c0-.1.1-.1.2-.1h.1l.1.1v1.9c0 .1 0 .1-.1.1s-.1.1-.2.1-.2 0-.2-.1v-.3c0-.1 0-.2-.1-.3-.1-.1-.2-.2-.4-.2h-2.6v3h1.1c1.1 0 1.8 0 2-.1.2-.1.3-.1.4-.3.1-.1.2-.3.2-.4s.1-.2.2-.3c.1-.1.1-.1.2-.1s.1 0 .2.1.1.2.1.2zM112.6 91.6c0 .1 0 .2-.1.2h-.2c-.1 0-.2 0-.2.1-.1.1-.1.2-.1.3v7c0 .1-.1.2-.2.2s-.2 0-.2-.1c-.3-.4-.6-.9-1-1.3l-1.5-1.5c-.6-.5-1-.9-1.2-1.2-1.2-1.3-2-2.2-2.3-2.6v1.8c0 1 0 1.8.1 2.3V98.5c0 .1 0 .1.1.2s.1.1.2.1H106.6c.1 0 .1 0 .2.1 0 .1.1.1.1.2s0 .2-.1.2h-2.2c-.1 0-.2-.1-.2-.3v-.1-.1h.5c.1 0 .1-.5.1-1.5 0-3.2 0-4.9-.1-5.1 0-.1-.1-.2-.2-.2s-.1-.1-.2-.1h-.3c-.1 0-.1-.1-.1-.2 0-.2 0-.2.1-.2h1.5c.1 0 .2.1.2.2.3.4.6.8 1 1.2.4.5.7.8 1 1.1.2.3.6.7 1.2 1.2l1 1 .3.3c.2.1.3.3.4.4.1.1.2.2.3.4v-1.7c0-1.7 0-2.9-.1-3.6-.1 0-.2-.1-.3-.1s-.3 0-.4-.1c-.1 0-.1-.1-.1-.2 0-.2.1-.2.3-.2H112.3c.3 0 .3 0 .3.2zM120.7 91.7c-.1.5-.2 1.1-.2 1.9 0 .2-.1.2-.3.2-.1 0-.2 0-.2-.1v-.2c0-.3-.1-.6-.2-.8-.1-.2-.3-.4-.5-.5-.2-.1-.5-.2-.7-.2-.2 0-.5-.1-.9-.1-.9 0-1.6.3-2.1 1s-.8 1.4-.8 2.3c0 1 .3 1.8.8 2.5.6.7 1.3 1 2.3 1 .6 0 1-.1 1.2-.2.3-.1.5-.4.7-.8.1-.1.2-.2.3-.2.1 0 .1 0 .2.1.1 0 .1.1.1.2 0 0 0 .1-.1.2s-.1.3-.2.4c-.1.2-.1.2-.1.3-.1.4-.2.6-.3.6h-2c-1.1 0-2.1-.4-2.9-1.1s-1.2-1.7-1.2-2.8c0-1.2.4-2.2 1.2-3s1.8-1.2 2.9-1.2c.7 0 1.4.1 2 .3h.2c.1 0 .1 0 .2-.1s.2-.1.3-.1c.2 0 .2.1.2.2v.2zM127.9 97.5l-.2.6c-.1.4-.2.7-.2.9 0 .2-.1.2-.3.2H122c-.2 0-.3-.1-.3-.3v-.1-.1h.4c.1 0 .2 0 .2-.1s.1-.1.1-.2v-4.2-2.1c0-.1-.1-.2-.3-.2s-.3-.1-.3-.3c0-.2.1-.2.2-.2h2.6c1.1 0 1.8 0 2.2-.1.3 0 .5-.1.5-.1h.2v.1c0 .1 0 .2-.1.4 0 .2-.1.4-.1.5v.4c0 .1 0 .2-.1.2-.1.1-.1.1-.2.1h-.1s-.1 0-.1-.1v-.1-.1-.1-.2-.1-.1-.1c0-.2-.8-.3-2.3-.3-.5 0-.8 0-1 .1v2.9h2.9c.1 0 .2 0 .2-.1s.1-.1.1-.2v-.2c0-.1.1-.1.2-.1h.1l.1.1v1.9c0 .1 0 .1-.1.1s-.1.1-.2.1-.2 0-.2-.1v-.3c0-.1 0-.2-.1-.3-.1-.1-.2-.2-.4-.2h-2.6v3h1.1c1.1 0 1.8 0 2-.1.2-.1.3-.1.4-.3.1-.1.2-.3.2-.4s.1-.2.2-.3c.1-.1.1-.1.2-.1s.1 0 .2.1.1.2.1.2zM134.5 97c0 .7-.3 1.3-.8 1.8-.6.4-1.2.6-2 .6h-.6c-.2 0-.4-.1-.7-.1s-.5-.1-.5-.1c0 .1-.1.2-.1.3-.1.1-.2.1-.3.1-.1 0-.2-.1-.2-.3-.1-.9-.2-1.5-.3-1.8 0-.1 0-.1.1-.2.1 0 .1-.1.2-.1s.2 0 .2.1c.1.4.4.8.8 1.1.4.3.9.4 1.5.4.5 0 .9-.1 1.3-.4.4-.3.6-.7.6-1.1 0-.3-.2-.5-.5-.8-.3-.2-.7-.4-1.1-.6-.4-.2-.9-.3-1.3-.5s-.8-.4-1.1-.7-.5-.6-.5-1c0-.7.3-1.3.8-1.7.5-.4 1.1-.6 1.9-.6.4 0 .9.1 1.6.2.1-.2.2-.3.3-.3.1 0 .1 0 .2.1s.1.1.1.2v1.6c0 .1-.1.2-.2.2s-.2 0-.2-.1-.1-.2-.1-.3c0-.1 0-.2-.1-.2-.1-.2-.3-.4-.6-.5-.3-.1-.6-.2-.9-.2-.5 0-.9.1-1.2.3s-.5.5-.5 1c0 .3.2.6.5.8.3.2.7.4 1.1.6.4.2.9.3 1.3.5s.8.4 1.1.7c0 .2.2.5.2 1z" class="st1"/></svg>